<svg width="222" height="69" viewBox="0 0 222 69" fill="none" xmlns="http://www.w3.org/2000/svg">
<g filter="url(#filter0_d_1450_1228)">
<path d="M154.085 10.7762L144.581 12.0623C144.58 12.0633 144.579 12.0643 144.578 12.0653C142.62 12.3322 141.008 14.1776 141.014 16.1464C141.015 16.6638 141.093 17.2893 141.102 17.831C137.86 15.5345 133.771 12.759 128.47 12.4228C124.266 11.9412 119.717 12.8066 115.954 15.4257C111.012 12.3027 105.356 11.5915 100.39 11.5878C100.38 11.5819 100.37 11.576 100.361 11.5702L88.5571 11.0605C88.5561 11.0605 88.5551 11.0605 88.5541 11.0605C86.9255 10.9925 85.4047 12.0585 84.7196 13.5243C81.6719 12.8823 78.4317 12.4492 74.9657 13.0146C67.5609 14.0469 59.9915 18.469 57.0899 26.2393C53.9883 34.1093 56.4883 43.371 63.1887 48.5958C69.0342 53.4462 76.8894 54.2827 83.6404 52.4923C85.5511 52.0497 86.9827 51.3915 88.1659 50.9425C93.7807 51.0967 99.7508 51.7517 106.062 51.3615C106.07 51.3615 106.078 51.3615 106.086 51.3615C106.131 51.3583 106.173 51.3544 106.218 51.3498L106.239 51.3468C108.973 51.0702 111.376 50.19 113.593 49.2022C116.379 50.9136 119.528 52.3706 123.197 52.6563C127.146 53.0329 131.425 52.3508 135.186 50.169C140.067 53.0325 145.724 52.9093 150.497 51.3995C155.386 50.7422 160.242 50.075 165.083 49.4805C168.201 51.5541 171.9 52.8644 175.848 52.4366C179.257 52.1514 182.175 50.5727 184.623 48.5401C184.81 48.6015 184.812 48.6486 185.014 48.6895C189.186 50.1879 193.483 49.529 197.249 47.9219C202.431 52.0161 209.308 51.6245 214.449 49.3165C215.769 48.7241 216.942 48.0699 218.01 47.4737C219.631 46.5693 220.476 44.48 219.942 42.7071C218.979 39.5107 218.017 36.3144 217.054 33.1181C216.357 30.8046 213.332 29.5781 211.191 30.6894V14.9218C211.19 12.7717 209.226 10.815 207.068 10.8143L190.133 10.8143C187.975 10.815 186.011 12.7717 186.011 14.9218C186.011 16.0321 186.011 17.1425 186.011 18.2528C183.995 18.8547 181.905 19.78 179.962 21.4491C176.058 20.0679 171.748 20.0444 167.808 21.6542C165.438 19.5968 162.425 18.6849 159.316 18.622C159.12 17.1804 158.925 15.7386 158.728 14.2948C158.437 12.1627 156.222 10.4876 154.082 10.7791L154.085 10.7762ZM117.881 16.7469C117.909 16.7792 117.982 16.869 117.989 16.8817C117.967 16.8531 117.93 16.8093 117.881 16.7469ZM118.057 16.9872C118.097 17.0496 118.136 17.1132 118.136 17.1131C118.136 17.1131 118.192 17.2524 118.248 17.3915C118.175 17.239 118.089 17.0538 118.057 16.9872ZM118.33 17.5936C118.336 17.6093 118.352 17.7089 118.354 17.743C118.345 17.6815 118.333 17.613 118.33 17.5936ZM118.386 18.4345C118.389 18.5029 118.398 18.6425 118.398 18.6425L118.342 18.8886L118.29 19.0614C118.29 19.0614 118.257 19.1261 118.243 19.1552C118.256 19.0895 118.338 18.6786 118.386 18.4345ZM118.189 19.2636C118.12 19.4039 118.045 19.5536 118.045 19.5536C118.045 19.5536 117.725 19.9491 117.725 19.9491C117.725 19.9491 117.658 20.0105 117.636 20.0311C117.647 20.0155 118.114 19.3679 118.189 19.2636ZM116.675 20.5497C116.708 20.6326 116.458 20.541 116.487 20.6083C116.507 20.602 116.633 20.5629 116.675 20.5497ZM190.86 33.7832C190.861 33.7831 190.861 33.7832 190.863 33.7832C190.553 33.7982 190.894 33.8723 190.866 33.8418C190.876 33.8526 190.855 33.7835 190.86 33.7832ZM173.778 35.9365C173.98 36.0917 173.938 36.0533 174.001 36.1006L173.995 36.124C173.934 36.0691 173.874 36.014 173.81 35.9629C173.799 35.954 173.789 35.9452 173.778 35.9365ZM174.287 36.6601C174.3 36.6601 174.344 36.6601 174.351 36.6601C174.042 36.6649 174.211 36.6499 174.281 36.7304C174.291 36.7423 174.285 36.6575 174.287 36.6601ZM196.879 47.7081C196.893 47.7196 196.909 47.7229 196.923 47.7344C196.988 47.7815 197.006 47.8132 197.076 47.8604L196.879 47.7081ZM134.724 49.961C134.76 49.9836 134.8 49.9886 134.836 50.0108C134.912 50.0497 134.923 50.0765 135.003 50.1133L134.724 49.961Z" fill="white"/>
<path d="M26.4529 2.80664L29.5964 6.96096L41.2323 5.79787L41.9292 12.6065H41.9644C50.0691 13.1408 56.7782 17.5507 61.137 23.6661L64.4833 46.5676C61.6226 54.1187 55.1847 60.157 46.8928 62.3294L43.6376 63.1849L40.5264 59.0365L28.8935 60.1908L28.1937 53.3909H28.1613C14.6019 52.4954 3.97217 41.4047 3.97217 28.1251V28.1076C4.00318 16.67 11.8896 6.62313 23.1947 3.66211L26.4529 2.80664Z" fill="#6725D6"/>
<path d="M26.5498 0.00152614C26.2645 -0.00747391 25.9787 0.0232763 25.7029 0.0952767L22.4477 0.953687C9.89912 4.24469 1.11815 15.4116 1.10205 28.1091V28.118V28.1355C1.10205 42.0811 11.675 53.858 25.5559 55.9355L25.5882 56.2109L26.0264 60.4795C26.0634 60.847 26.1741 61.2042 26.3528 61.5312C26.5313 61.8567 26.7745 62.1439 27.0673 62.3779C27.3602 62.6119 27.6961 62.7871 28.0583 62.8936C28.4206 63.0001 28.8023 63.0335 29.1787 62.996L39.1766 62.0029L41.3144 64.8505C41.6566 65.308 42.1326 65.6518 42.6789 65.8408C43.2249 66.0283 43.8161 66.0507 44.3756 65.9053L47.6308 65.0527C55.8451 62.9002 62.2364 57.2727 65.8153 50.1552C66.4082 48.9201 66.5588 48.6638 66.7924 48.2333C66.0111 47.7305 65.4189 47.308 64.4835 46.5697C61.6227 54.1208 55.1846 60.1586 46.8927 62.331L43.6375 63.1865L40.5264 59.038L28.8934 60.1923L28.1936 53.3925H28.1612C14.6019 52.497 3.97207 41.4063 3.97207 28.1267V28.1091C4.00308 16.6716 11.8895 6.62471 23.1946 3.66369L26.4528 2.80821L29.5962 6.96254L41.2321 5.79945L41.929 12.6081H41.9642C50.0689 13.1424 56.7789 17.5522 61.1377 23.6677C61.5748 23.0179 62.0949 22.3638 62.6783 21.7016C61.2985 20.0905 62.3739 21.3461 61.2985 20.0905C57.0212 15.1525 51.4275 11.2402 44.5637 10.1032L44.5313 9.8102L44.0873 5.53284C44.05 5.16534 43.9396 4.80658 43.7609 4.48108C43.5822 4.15558 43.3392 3.8684 43.0464 3.6344C42.7535 3.4004 42.4176 3.22527 42.0554 3.11877C41.6933 3.01227 41.3111 2.97579 40.935 3.01329L30.9312 4.01525L28.761 1.15001C28.5039 0.809507 28.1734 0.532049 27.7907 0.335548C27.4081 0.137546 26.9848 0.0253468 26.5527 0.0103467L26.5498 0.00152614Z" fill="white"/>
<path d="M154.409 13.1527L144.905 14.4388C144.052 14.5552 143.417 15.283 143.42 16.141C143.426 18.3323 143.486 20.7126 143.779 23.1166C143.221 22.9422 142.7 22.6761 142.029 22.8412L142.441 22.7914H140.182C140.295 22.5093 140.408 22.2269 140.521 21.9448C140.815 21.2112 140.567 20.3722 139.921 19.9145C136.666 17.6057 132.886 15.0649 128.232 14.7992C124.002 14.3063 119.41 15.2526 116.031 18.265C116.013 18.2495 116.036 18.2653 116.016 18.2475C115.977 18.2114 115.936 18.1772 115.893 18.1449C111.242 14.6433 105.433 13.9508 100.178 13.9642H100.258L88.4544 13.4545C87.6947 13.4228 87.0045 13.8923 86.7576 14.6088C86.5938 15.083 86.32 15.6698 86.0813 16.2055C82.6559 15.3507 79.0422 14.7677 75.3276 15.3793C68.6235 16.305 61.853 20.3188 59.3338 27.0922C56.617 33.9564 58.8413 42.192 64.6945 46.7359C69.8334 51.0203 76.9233 51.8102 83.0643 50.1695C84.8905 49.7518 86.4182 49.029 87.8251 48.5289C93.7012 48.6653 99.7313 49.3534 105.913 48.9713C105.934 48.9698 105.956 48.9678 105.977 48.9654C108.785 48.6847 111.342 47.7062 113.729 46.5602C116.567 48.4618 119.789 49.9965 123.409 50.2721C127.394 50.6554 131.696 49.9246 135.177 47.4361C135.337 47.5657 135.52 47.7105 136.012 47.9371C140.434 50.7287 145.897 50.5471 150.433 48.9537L150.092 49.0358C155.228 48.3454 160.347 47.6352 165.465 47.0143C168.351 49.2123 171.938 50.467 175.619 50.0582C178.97 49.7865 181.96 48.1546 184.261 45.8775C184.491 46.0221 184.735 46.2314 185.505 46.3609C189.581 47.9493 194.062 47.2569 197.729 45.3092C197.863 45.4499 198.034 45.6102 198.432 45.8805C202.743 49.5138 208.846 49.2031 213.461 47.1314C214.66 46.5935 215.768 45.9775 216.834 45.3824C217.537 44.9904 217.872 44.1645 217.64 43.3961C216.677 40.1998 215.715 37.0034 214.752 33.8071C214.435 32.7571 213.223 32.2704 212.264 32.8081C211.085 33.4697 209.941 34.1425 208.786 34.815V14.9223C208.785 13.9775 208.017 13.2116 207.068 13.2113L190.134 13.2113C189.186 13.2116 188.417 13.9775 188.417 14.9222C188.417 16.6107 188.417 18.2992 188.417 19.9877C185.86 20.6224 183.142 21.4724 180.962 23.6147C180.665 23.8525 180.516 23.987 180.406 24.1039C176.382 22.2878 171.62 22.2024 167.615 24.2621C167.589 24.2752 167.564 24.2888 167.538 24.3032C167.372 24.4001 167.424 24.3772 167.327 24.4174C164.986 21.7277 161.426 20.4181 157.902 20.7875C157.63 20.7639 157.369 20.7424 157.182 20.7699C156.902 18.7201 156.624 16.6691 156.344 14.6175C156.216 13.6806 155.349 13.0246 154.409 13.1527ZM143.823 24.3149C143.827 24.428 143.844 24.407 143.852 24.5112C143.858 24.5388 143.849 24.5627 143.855 24.5903L143.823 24.3149Z" fill="#6725D6"/>
<path d="M193.145 17.9199V21.7725H199.794V37.3263C199.794 41.7183 202.01 43.9123 206.443 43.9123C208.683 43.9123 210.672 43.4085 212.406 42.4005L211.321 38.7999C209.996 39.6159 208.626 40.0245 207.204 40.0245C206.048 40.0245 205.228 39.7727 204.746 39.2687C204.288 38.7647 204.058 37.8999 204.058 36.6759V17.9199H193.145ZM152.063 18.2217L147.837 18.793L149.172 28.6163C147.585 27.8144 145.867 27.4122 144.017 27.4122C142.138 27.4122 140.501 27.7844 139.104 28.5284C137.73 29.2484 136.657 30.281 135.887 31.6251C135.199 32.8634 134.832 34.3184 134.778 35.9845C134.565 34.8993 134.14 33.9895 133.502 33.2599C132.533 32.0966 130.997 31.2341 128.894 30.6729L124.804 29.5801C123.765 29.2998 123.028 28.9471 122.592 28.5225C122.183 28.0724 121.986 27.4838 122.001 26.7559C122.021 25.7681 122.401 25.0203 123.142 24.5147C123.883 23.9831 124.971 23.7308 126.406 23.7588C128.754 23.8047 130.75 24.519 132.393 25.9034L134.702 22.0889C132.334 20.3523 129.596 19.4513 126.491 19.3906C123.621 19.3345 121.379 19.9805 119.76 21.3272C118.142 22.6478 117.308 24.505 117.261 26.8965C117.224 28.7942 117.689 30.3242 118.658 31.4874C119.653 32.6251 121.204 33.4749 123.307 34.0362L127.397 35.129C128.436 35.4094 129.159 35.7747 129.567 36.2247C130.003 36.6494 130.213 37.2797 130.197 38.1114C130.176 39.1773 129.767 39.9866 128.973 40.5431C128.18 41.0738 127.025 41.3257 125.512 41.296C124.155 41.2696 122.882 41.0352 121.689 40.5958C120.524 40.1569 119.44 39.4869 118.44 38.5831L115.979 42.3185C117.262 43.4359 118.682 44.27 120.237 44.8205C121.793 45.3449 123.483 45.6256 125.309 45.6613C128.31 45.7198 130.645 45.0612 132.317 43.6896C133.925 42.3903 134.792 40.6109 134.919 38.3487C135.093 39.4005 135.414 40.3522 135.887 41.2023C136.657 42.5463 137.73 43.5901 139.104 44.3341C140.501 45.0541 142.138 45.4123 144.017 45.4123C146.474 45.4123 148.702 44.7042 150.701 43.2882L149.113 39.9044C148.126 40.5044 147.258 40.9242 146.511 41.1642C145.764 41.4042 144.969 41.5245 144.126 41.5245C142.488 41.5245 141.235 41.0936 140.368 40.2296C139.525 39.3656 139.104 38.0922 139.104 36.4122C139.104 34.7322 139.525 33.4617 140.368 32.5977C141.235 31.7337 142.488 31.2999 144.126 31.2999C144.897 31.2999 145.619 31.4091 146.293 31.6251C146.992 31.8171 147.787 32.1641 148.678 32.6681L149.469 30.8048L151.278 44.1203L155.5 43.5519L153.792 30.9571C154.368 30.5404 154.933 30.2249 155.486 30.005C156.061 29.758 156.681 29.5882 157.35 29.4981C158.496 29.3437 159.328 29.4846 159.849 29.9229C160.394 30.358 160.751 31.1827 160.917 32.3956L162.305 42.6349L166.53 42.0636L166.372 40.8859C166.412 40.9668 166.449 41.0495 166.492 41.129C167.239 42.473 168.275 43.528 169.6 44.2961C170.925 45.0401 172.453 45.4123 174.188 45.4123C175.922 45.4123 177.453 45.0401 178.778 44.2961C180.103 43.528 181.139 42.473 181.886 41.129C182.393 40.2003 182.723 39.1755 182.886 38.0587C183.189 38.6456 183.545 39.1883 183.959 39.6818C184.957 40.8525 186.181 41.6854 187.632 42.1779C189.079 42.6468 190.652 42.7093 192.352 42.3683C194.051 42.0274 195.478 41.363 196.63 40.3732C197.777 39.3598 198.585 38.1198 199.05 36.6554C199.511 35.1675 199.564 33.5536 199.212 31.8126C198.855 30.048 198.178 28.58 197.18 27.4092C196.182 26.2385 194.958 25.4201 193.513 24.9512C192.062 24.4588 190.487 24.3817 188.788 24.7227C187.088 25.0637 185.664 25.7425 184.518 26.7559C183.366 27.7458 182.556 28.9712 182.089 30.4356C181.971 30.8073 181.881 31.1902 181.815 31.5811C181.074 30.2945 180.063 29.2883 178.778 28.5665C177.453 27.7985 175.922 27.4122 174.188 27.4122C172.453 27.4122 170.925 27.7985 169.6 28.5665C168.275 29.3105 167.239 30.3543 166.492 31.6983C166.01 32.5661 165.687 33.5292 165.516 34.587L165.054 31.1856C164.77 29.0927 164.014 27.559 162.787 26.586C161.558 25.5892 159.94 25.2259 157.935 25.4961C156.216 25.7278 154.681 26.4052 153.327 27.5323L152.063 18.2217ZM91.3457 18.292L90.4047 37.8302L89.2579 30.6729L81.6418 31.7657L82.5857 37.6603C81.3659 38.353 80.1166 38.8647 79.1982 38.9962C75.7161 39.4948 72.7471 37.3304 72.1849 33.8223C71.6342 30.3867 73.7546 27.4923 77.1986 26.9991C79.418 26.6812 82.188 27.3577 84.2471 28.7276L88.3375 22.2588C85.085 20.2828 80.287 19.4174 76.1165 20.0147C67.3537 21.2695 61.8777 27.6401 63.078 35.1261C64.2838 42.6486 71.2882 47.2676 79.7069 46.0627C83.2147 45.5603 87.4648 43.7704 90.2165 41.6974L90.1107 43.9064L101.864 44.4132C111.027 44.8071 117.186 40.0178 117.561 32.2344C117.936 24.4511 112.377 19.1977 103.446 18.8135L91.3457 18.292ZM99.9969 25.2559L102.937 25.3819C106.417 25.5316 108.578 28.1123 108.395 31.9122C108.214 35.676 106.009 37.9991 102.761 37.8595L99.397 37.7159L99.9969 25.2559ZM190.546 28.4229C191.496 28.4067 192.331 28.6752 193.051 29.2286C194.006 29.9428 194.644 31.0888 194.963 32.6651C195.28 34.2415 195.141 35.5553 194.542 36.6056C193.94 37.6325 192.953 38.2821 191.584 38.5567C190.214 38.8315 189.05 38.6117 188.094 37.8976C187.134 37.1597 186.494 36.0022 186.176 34.4259C185.857 32.8495 186 31.5503 186.603 30.5235C187.202 29.4731 188.188 28.8089 189.558 28.5342C189.9 28.4656 190.229 28.4283 190.546 28.4229ZM174.188 31.2999C175.585 31.2999 176.683 31.756 177.478 32.668C178.273 33.556 178.669 34.8042 178.669 36.4122C178.669 38.0202 178.273 39.2825 177.478 40.1945C176.683 41.0825 175.585 41.5245 174.188 41.5245C172.79 41.5245 171.695 41.0825 170.9 40.1945C170.105 39.2825 169.709 38.0202 169.709 36.4122C169.709 34.8042 170.105 33.556 170.9 32.668C171.695 31.756 172.79 31.2999 174.188 31.2999Z" fill="white"/>
<path d="M24.3961 8.40234L21.6423 9.39085L21.9838 13.8429C20.9953 14.3724 20.0714 14.9934 19.2212 15.6909L14.9617 13.9659L13.0934 16.1394L15.6588 19.7499C15.069 20.6994 14.5805 21.7089 14.2014 22.7649L9.70138 23.2989L9.22119 26.0724L13.2781 27.9504C13.2781 28.5054 13.3091 29.0664 13.3588 29.632C13.4178 30.1975 13.5047 30.7525 13.6195 31.297L10.0214 33.8935L11.0572 36.5245L15.5787 36.2095C16.1656 37.1755 16.8504 38.0755 17.622 38.8975L15.8419 42.916L18.114 44.6995L21.9406 42.2155C22.9165 42.7435 23.9503 43.1785 25.0277 43.5145L25.5991 47.9456L28.5006 48.4046L30.5704 44.3126C31.1097 44.3035 31.6532 44.272 32.1994 44.2135L32.2 44.2151L40.1164 43.4725L38.9885 32.4835L31.0714 33.226L31.4234 36.646L31.4221 36.6445C26.4409 37.1125 22.007 33.6295 21.5178 28.867C21.0288 24.1044 24.6706 19.8654 29.6514 19.3974L37.5678 18.6534L36.7906 11.0814L28.8742 11.8254C28.3263 11.8689 27.7875 11.9379 27.2564 12.0309L24.3961 8.40234ZM41.5923 17.5914L39.5219 21.6834C38.9833 21.6939 38.4401 21.7254 37.8933 21.7839L29.9762 22.5264L30.7531 30.097L38.6708 29.353C39.8552 29.242 41.0509 29.356 42.1896 29.686C43.3284 30.016 44.3879 30.559 45.3075 31.2805C46.2272 32.0035 46.9892 32.8915 47.5499 33.895C48.1106 34.8985 48.459 35.998 48.5752 37.1305C48.8096 39.418 48.0842 41.701 46.5588 43.477C45.0333 45.2531 42.8326 46.3766 40.4409 46.6001L32.5238 47.3471L33.301 54.9176L41.2188 54.1736C41.7667 54.1286 42.3057 54.0581 42.8353 53.9666L45.7009 57.5951L48.4522 56.6066L48.1133 52.1546C49.1009 51.6236 50.0246 51.0041 50.8742 50.3051L55.1353 52.0316L57.0019 49.8566L54.4379 46.2476C55.0276 45.2966 55.5177 44.2871 55.8972 43.231L60.3942 42.6985L60.876 39.9235L56.8179 38.047C56.8489 37.492 56.7869 36.9295 56.7372 36.3655C56.6782 35.8 56.5913 35.245 56.4764 34.7005L60.0749 32.1025L59.0392 29.4715L54.5192 29.7865C53.932 28.822 53.2464 27.9205 52.4746 27.0985L54.2544 23.0814L51.9826 21.2964L48.1551 23.7819C47.1791 23.2539 46.1461 22.8189 45.0687 22.4829L44.4954 18.0504L41.5923 17.5914Z" fill="white"/>
</g>
<defs>
<filter id="filter0_d_1450_1228" x="9.14335e-05" y="0" width="221.204" height="68.2039" filterUnits="userSpaceOnUse" color-interpolation-filters="sRGB">
<feFlood flood-opacity="0" result="BackgroundImageFix"/>
<feColorMatrix in="SourceAlpha" type="matrix" values="0 0 0 0 0 0 0 0 0 0 0 0 0 0 0 0 0 0 127 0" result="hardAlpha"/>
<feOffset dy="1.10196"/>
<feGaussianBlur stdDeviation="0.55098"/>
<feComposite in2="hardAlpha" operator="out"/>
<feColorMatrix type="matrix" values="0 0 0 0 0 0 0 0 0 0 0 0 0 0 0 0 0 0 0.25 0"/>
<feBlend mode="normal" in2="BackgroundImageFix" result="effect1_dropShadow_1450_1228"/>
<feBlend mode="normal" in="SourceGraphic" in2="effect1_dropShadow_1450_1228" result="shape"/>
</filter>
</defs>
</svg>
