<svg width="25" height="25" viewBox="0 0 25 25" fill="none" xmlns="http://www.w3.org/2000/svg">
<path fill-rule="evenodd" clip-rule="evenodd" d="M8.09019 4.07685C8.16779 4.15426 8.22936 4.24622 8.27138 4.34746C8.31339 4.44871 8.33501 4.55724 8.33501 4.66685C8.33501 4.77647 8.31339 4.885 8.27138 4.98624C8.22936 5.08749 8.16779 5.17945 8.09019 5.25685L6.17852 7.16685H15.0002C16.9893 7.16685 18.897 7.95703 20.3035 9.36355C21.71 10.7701 22.5002 12.6777 22.5002 14.6669C22.5002 16.656 21.71 18.5636 20.3035 19.9702C18.897 21.3767 16.9893 22.1669 15.0002 22.1669H8.33352C8.11251 22.1669 7.90055 22.0791 7.74427 21.9228C7.58799 21.7665 7.50019 21.5545 7.50019 21.3335C7.50019 21.1125 7.58799 20.9005 7.74427 20.7443C7.90055 20.588 8.11251 20.5002 8.33352 20.5002H15.0002C16.5473 20.5002 18.031 19.8856 19.125 18.7916C20.2189 17.6977 20.8335 16.214 20.8335 14.6669C20.8335 13.1198 20.2189 11.636 19.125 10.5421C18.031 9.4481 16.5473 8.83352 15.0002 8.83352H6.17852L8.09019 10.7435C8.16767 10.821 8.22913 10.913 8.27106 11.0142C8.31299 11.1154 8.33457 11.2239 8.33457 11.3335C8.33457 11.4431 8.31299 11.5516 8.27106 11.6528C8.22913 11.7541 8.16767 11.846 8.09019 11.9235C8.01271 12.001 7.92073 12.0625 7.81949 12.1044C7.71826 12.1463 7.60976 12.1679 7.50019 12.1679C7.39061 12.1679 7.28211 12.1463 7.18088 12.1044C7.07965 12.0625 6.98767 12.001 6.91019 11.9235L3.57685 8.59019C3.49925 8.51278 3.43768 8.42082 3.39567 8.31958C3.35366 8.21834 3.33203 8.1098 3.33203 8.00019C3.33203 7.89058 3.35366 7.78204 3.39567 7.6808C3.43768 7.57956 3.49925 7.4876 3.57685 7.41019L6.91019 4.07685C6.9876 3.99925 7.07956 3.93768 7.1808 3.89567C7.28204 3.85366 7.39058 3.83203 7.50019 3.83203C7.6098 3.83203 7.71834 3.85366 7.81958 3.89567C7.92082 3.93768 8.01278 3.99925 8.09019 4.07685Z" fill="white"/>
</svg>
