<?xml version="1.0" encoding="UTF-8" standalone="no"?>
<!-- Created with Inkscape (http://www.inkscape.org/) -->

<svg
   width="338.66663mm"
   height="98.447685mm"
   viewBox="0 0 338.66664 98.447685"
   version="1.1"
   id="svg8"
   xmlns="http://www.w3.org/2000/svg"
   xmlns:svg="http://www.w3.org/2000/svg"
   xmlns:rdf="http://www.w3.org/1999/02/22-rdf-syntax-ns#"
   xmlns:cc="http://creativecommons.org/ns#"
   xmlns:dc="http://purl.org/dc/elements/1.1/">
  <defs
     id="defs2" />
  <metadata
     id="metadata5">
    <rdf:RDF>
      <cc:Work
         rdf:about="">
        <dc:format>image/svg+xml</dc:format>
        <dc:type
           rdf:resource="http://purl.org/dc/dcmitype/StillImage" />
      </cc:Work>
    </rdf:RDF>
  </metadata>
  <g
     id="layer2"
     transform="translate(621.68795,-19.507235)">
    <path
       style="color:#000000;font-style:normal;font-variant:normal;font-weight:normal;font-stretch:normal;font-size:medium;line-height:normal;font-family:sans-serif;font-variant-ligatures:normal;font-variant-position:normal;font-variant-caps:normal;font-variant-numeric:normal;font-variant-alternates:normal;font-feature-settings:normal;text-indent:0;text-align:start;text-decoration:none;text-decoration-line:none;text-decoration-style:solid;text-decoration-color:#000000;letter-spacing:normal;word-spacing:normal;text-transform:none;writing-mode:lr-tb;direction:ltr;text-orientation:mixed;dominant-baseline:auto;baseline-shift:baseline;text-anchor:start;white-space:normal;shape-padding:0;clip-rule:nonzero;display:inline;overflow:visible;visibility:visible;opacity:1;isolation:auto;mix-blend-mode:normal;color-interpolation:sRGB;color-interpolation-filters:linearRGB;solid-color:#000000;solid-opacity:1;vector-effect:none;fill:#ffffff;fill-opacity:1;fill-rule:nonzero;stroke:none;stroke-width:3.17499971;stroke-linecap:round;stroke-linejoin:miter;stroke-miterlimit:4;stroke-dasharray:none;stroke-dashoffset:0;stroke-opacity:1;color-rendering:auto;image-rendering:auto;shape-rendering:auto;text-rendering:auto;enable-background:accumulate"
       d="m -585.87199,19.507235 -5.18796,1.400555 c -18.01069,4.829455 -30.60446,21.214146 -30.628,39.861389 v 0.01286 0.01286 c 0,21.652735 16.93386,39.735261 38.5375,41.195481 h 0.0524 l 1.10952,11.08851 18.53539,-1.88337 4.95508,6.7594 5.18795,-1.39021 c 13.36311,-3.5833 23.68803,-13.55689 28.16421,-26.069247 6.70314,5.652069 15.66989,8.74601 25.24896,7.342186 4.00776,-0.587491 7.93437,-1.8941 11.66609,-3.593114 l 22.14925,0.973614 c 10.04621,0.261161 19.96027,-2.136162 24.35926,-8.624984 6.54612,6.4917 15.91586,10.165936 25.93329,8.923961 1.13311,-0.140396 2.09354,-0.622948 3.17952,-0.868803 l 5.80424,7.359977 12.00493,-8.847282 c 3.24367,1.706337 6.80912,2.808568 10.55785,2.6475 1.24037,-0.05366 2.36038,-0.805479 3.59295,-1.073316 l 0.0524,0.618369 23.76127,-1.022152 -0.14243,-3.237868 c 2.10526,0.65082 3.89002,1.978229 6.17059,2.098083 4.06794,0.213686 7.94747,-0.504667 11.53394,-1.845161 l 1.27569,0.753924 c 6.04111,3.580676 12.96145,4.255312 19.49057,3.176502 2.97929,-0.491957 5.94033,-1.412073 8.62522,-2.897934 2.39837,1.287372 5.00216,2.198309 7.52357,2.394573 4.3924,0.340186 8.68931,-0.605808 12.47859,-2.453323 l 5.59357,-2.721689 -4.34666,-19.125747 3.83373,0.298992 1.77818,-21.297884 -9.40638,-0.733515 0.72226,-8.739991 -23.57677,-1.827106 -0.72359,8.732272 -4.77057,-0.368078 -0.10484,1.528257 c -1.81349,-0.01434 -3.54849,-0.754448 -5.36198,-0.454818 -2.81837,0.465302 -5.66033,1.485471 -8.26674,2.926068 -3.86643,-3.00497 -8.497,-5.157486 -13.84196,-5.438274 -3.77093,-0.197713 -7.31552,0.69321 -10.65334,2.029131 V 46.77009 l -23.40407,1.004359 -0.34568,0.02077 -12.62384,0.53149 c -6.5121,-7.658175 -16.95739,-11.744175 -27.85542,-10.39334 -7.12443,0.883328 -13.30812,4.105104 -18.09051,8.652984 -5.92332,-5.912715 -14.77099,-8.604831 -21.48199,-8.788406 l -27.10171,-1.198663 -0.25271,5.284921 c -5.66295,-1.9221 -11.64907,-2.939148 -17.6666,-2.05726 -9.70339,1.422013 -17.58544,6.863818 -22.50516,14.101589 -6.93473,-10.181108 -17.74246,-17.555482 -30.82948,-18.438286 h -0.0524 l -1.10952,-11.098721 -18.53539,1.893576 z m -3.2816,9.120749 4.55733,5.918734 c 0.84525,-0.150881 1.70227,-0.266156 2.57501,-0.337318 l 12.61469,-1.211354 1.23647,12.345794 -12.61078,1.211354 v 0 c -7.93565,0.762558 -13.7386,7.675182 -12.96007,15.440649 0.77983,7.765992 7.84541,13.442661 15.78106,12.680627 v 0 l -0.56262,-5.578802 12.61469,-1.208737 1.79647,17.919492 -12.61202,1.211354 v 0 c -0.87012,0.09549 -1.735,0.148754 -2.59336,0.16354 l -3.29727,6.672525 -4.62271,-0.748821 -0.91201,-7.227039 c -1.71665,-0.547978 -3.36264,-1.256499 -4.9171,-2.11601 l -6.09734,4.050537 -3.61916,-2.910757 2.8341,-6.549792 c -1.22861,-1.3405 -2.31984,-2.808702 -3.25539,-4.382886 l -7.20167,0.513697 -1.65124,-4.290777 5.73229,-4.234507 c -0.18298,-0.887382 -0.32194,-1.793216 -0.4159,-2.713964 -0.0786,-0.921406 -0.13105,-1.836008 -0.13105,-2.742103 l -6.46241,-3.061619 0.76415,-4.523282 7.17027,-0.868937 c 0.60451,-1.722038 1.38038,-3.367662 2.32117,-4.916858 l -4.08629,-5.887984 2.97672,-3.544565 6.78429,2.813671 c 1.3555,-1.138736 2.82885,-2.148985 4.40418,-3.012946 l -0.54428,-7.260277 z m 27.39616,14.985836 4.62533,0.748687 0.91463,7.224557 c 1.71666,0.548107 3.36136,1.258853 4.9171,2.118631 l 6.09734,-4.050542 3.61916,2.908141 -2.83409,6.552408 c 1.2286,1.340366 2.31983,2.808702 3.25538,4.382757 l 7.20168,-0.516184 1.65123,4.290775 -5.73228,4.234509 c 0.18297,0.887511 0.31946,1.795832 0.41342,2.716585 0.0786,0.921273 0.1805,1.836265 0.13105,2.742099 l 6.46503,3.059002 -0.76939,4.525898 -7.16241,0.866321 c -0.6058,1.722167 -1.38696,3.370278 -2.32641,4.919474 l 4.08367,5.885368 -2.97148,3.544565 -6.79082,-2.813672 c -1.35293,1.138866 -2.82361,2.148985 -4.39765,3.012947 l 0.53904,7.260404 -4.38192,1.61253 -4.56781,-5.91612 c -0.84263,0.14836 -1.69965,0.26314 -2.5724,0.33732 l -12.61726,1.21135 -1.23647,-12.343306 12.61336,-1.216457 a 14.437761,14.129582 0 0 0 12.96011,-15.440649 14.437761,14.129582 0 0 0 -15.7811,-12.680627 l -12.61469,1.211353 -1.23647,-12.343306 12.61207,-1.211354 c 0.8714,-0.09549 1.73757,-0.146133 2.59593,-0.160919 z m 79.25749,1.170402 19.27857,0.845906 c 11.35206,0.49943 19.26679,6.065802 21.70705,14.735269 2.56848,-7.694548 9.74266,-13.481262 19.17911,-14.651006 11.16755,-1.384201 20.97564,4.294696 24.43907,13.552177 l -0.13451,-2.972123 8.07046,-0.347505 0.81251,17.697058 c 0.20425,4.468721 2.97801,7.036794 7.41363,6.84642 5.171,-0.28198 8.0718,-4.346775 7.83497,-9.470892 l -0.72359,-15.732041 8.07046,-0.344884 0.48019,10.472632 c 1.6997,-8.011975 8.4329,-12.942443 17.26099,-12.478733 7.29326,0.383112 11.80212,3.541559 13.78177,8.701656 1.56885,-3.4009 5.45752,-5.538367 10.01743,-6.291767 3.82068,-0.631192 7.95796,-0.282475 11.36773,0.940376 l 0.0915,-1.313548 4.67112,0.362984 0.72879,-8.739991 7.92784,0.618369 -0.72617,8.737504 9.40115,0.733381 -0.46733,5.647757 -9.40505,-0.733381 -1.19068,14.328866 c -0.25122,3.03205 0.95385,4.141086 3.1049,4.308696 1.35293,0.104692 2.9283,-0.24939 4.77977,-0.942992 l 1.35684,5.96976 c -2.64435,1.289864 -5.53996,1.901428 -8.429,1.676507 -3.61782,-0.281684 -6.639,-1.891484 -8.04949,-4.927194 -1.88549,2.901337 -5.61716,4.791248 -9.98212,5.51233 -4.92234,0.813456 -10.29876,0.128232 -14.21098,-2.19007 l 1.79123,-5.801106 c 3.41374,1.977058 8.1621,2.644756 11.68701,2.062369 2.73464,-0.45195 4.64629,-1.676117 4.27995,-3.733639 -0.8767,-4.966053 -12.9353,-1.350701 -17.64568,-7.124985 -0.0396,0.623472 -0.10484,1.255056 -0.18199,1.903913 l -24.32132,-1.277692 c 0.79292,4.581115 4.2119,7.508879 9.01387,7.761148 3.38624,0.177833 6.59717,-0.907797 9.06749,-3.107545 l 4.06532,4.574441 c -3.45691,3.282747 -8.37272,5.054896 -14.15994,4.750687 -7.66614,-0.402497 -13.15244,-4.386679 -15.18837,-10.398444 l 0.54428,11.873055 -8.07046,0.347505 -0.27101,-5.898186 c -2.08434,4.328319 -5.93637,6.462913 -11.17274,6.68783 -7.39137,0.317685 -12.1659,-4.191849 -12.51133,-11.699292 l -0.19485,-4.242098 c -0.99702,3.565632 -2.95842,6.775896 -5.67343,9.363469 l 4.00514,5.085517 -6.38911,4.707375 -4.25765,-5.407524 c -2.18508,0.957126 -4.58087,1.636989 -7.14802,1.954942 -11.64511,1.443603 -21.81169,-4.896316 -24.8473,-14.883514 -2.75947,9.496008 -11.69353,15.085143 -24.11981,14.538476 l -18.72375,-0.822876 0.1716,-3.628828 c -4.3833,3.388205 -11.14925,6.321992 -16.74934,7.142777 -13.41153,1.965673 -24.57255,-5.567154 -26.49335,-17.832612 -1.9116,-12.206576 6.8157,-22.59455 20.77674,-24.640688 6.64429,-0.973876 14.28555,0.440279 19.46832,3.662194 l -6.51735,10.546688 c -3.28026,-2.233638 -7.69235,-3.336917 -11.22907,-2.818775 -5.48625,0.804168 -8.86596,5.522404 -7.98803,11.124362 0.89629,5.719985 5.62759,9.248849 11.17542,8.435784 1.46281,-0.214427 3.45295,-1.050547 5.39728,-2.179863 l -1.50598,-9.611418 12.13188,-1.778691 1.82654,11.666189 z m 62.68742,7.901804 c -0.48414,0.01286 -0.96957,0.05232 -1.45891,0.112506 -7.95143,0.98565 -13.75566,7.83887 -12.722,15.647644 1.035,7.808909 8.51668,13.134787 16.40654,12.156728 1.14231,-0.141435 2.2283,-0.424702 3.26329,-0.804955 l -3.22665,-4.096598 6.38783,-4.707249 3.25672,4.13232 c 2.17855,-2.813147 3.28679,-6.430855 2.78044,-10.258048 -0.97086,-7.320724 -7.43326,-12.378374 -14.68726,-12.182239 z m -48.90035,3.449967 -0.95518,20.316553 5.35807,0.235148 c 5.1749,0.227681 8.68803,-3.55634 8.9759,-9.693193 0.29029,-6.196253 -3.15336,-10.407211 -8.69723,-10.651493 z m 118.75146,2.805952 c -4.29429,0.120368 -7.42149,2.857897 -8.36223,7.232277 l 17.24001,0.904651 c 0.0786,-4.714571 -3.01726,-7.862025 -8.00375,-8.124105 -0.29721,-0.01583 -0.5875,-0.02077 -0.87403,-0.01286 z m 36.22681,1.70202 -0.65421,2.082772 c -3.48178,-1.300329 -7.254,-1.765216 -10.05016,-1.303335 -2.55276,0.421684 -4.22887,1.545659 -3.88739,3.485815 0.80603,4.562276 13.33304,1.034584 18.04995,7.20912 l 0.92769,-11.134443 z"
       id="path4607" />
  </g>
</svg>
