<svg width="20" height="20" viewBox="0 0 20 20" fill="none" xmlns="http://www.w3.org/2000/svg">
<path d="M13.5734 7.85579C12.8445 6.64394 11.5166 5.83268 10.0003 5.83268C7.70032 5.83268 5.83366 7.69934 5.83366 9.99935C5.83366 12.2993 7.70032 14.166 10.0003 14.166C11.5166 14.166 12.8445 13.3548 13.5734 12.1429L12.1444 11.2862C11.7072 12.0132 10.9109 12.4993 10.0003 12.4993C8.61908 12.4993 7.50033 11.3806 7.50033 9.99935C7.50033 8.6181 8.61908 7.49935 10.0003 7.49935C10.9112 7.49935 11.7079 7.9859 12.1449 8.71335L13.5734 7.85579ZM18.3337 9.99935C18.3337 5.39933 14.6003 1.66602 10.0003 1.66602C5.40031 1.66602 1.66699 5.39933 1.66699 9.99935C1.66699 14.5993 5.40031 18.3327 10.0003 18.3327C14.6003 18.3327 18.3337 14.5993 18.3337 9.99935ZM3.33366 9.99935C3.33366 6.31598 6.31696 3.33268 10.0003 3.33268C13.6837 3.33268 16.667 6.31598 16.667 9.99935C16.667 13.6827 13.6837 16.666 10.0003 16.666C6.31696 16.666 3.33366 13.6827 3.33366 9.99935Z" fill="white"/>
</svg>
