<svg width="70" height="70" viewBox="0 0 70 70" fill="none" xmlns="http://www.w3.org/2000/svg">
<path d="M26.2576 0.00201236C25.9597 -0.00895277 25.6619 0.0249397 25.3742 0.102545L22.0183 0.999735C9.074 4.46066 0.0160081 16.2169 3.89537e-06 29.5794C-1.29846e-06 29.5826 -1.29846e-06 29.5858 3.89537e-06 29.589V29.5986V29.6082C3.89537e-06 44.2834 10.9048 56.6781 25.2203 58.8624L25.2523 59.1477L25.702 63.6419C25.7405 64.0288 25.8551 64.4043 26.0394 64.747C26.2237 65.0896 26.474 65.3926 26.7759 65.6387C27.0779 65.8847 27.4255 66.069 27.799 66.1808C28.1724 66.2927 28.5643 66.33 28.9523 66.2905L39.2617 65.2432L41.4552 68.2415C41.8084 68.7235 42.2998 69.0875 42.8645 69.2856C43.4293 69.4837 44.041 69.5067 44.6191 69.3515L47.982 68.4543C60.926 64.9934 69.983 53.2373 70 39.8747C70 39.8715 70 39.8683 70 39.8651V39.8555V39.846C70 25.168 59.0859 12.7793 44.7682 10.5984L44.733 10.3131L44.2833 5.81397C44.245 5.42691 44.1305 5.05119 43.9463 4.70834C43.7621 4.3655 43.5118 4.06228 43.2099 3.81606C42.9079 3.56985 42.5602 3.38547 42.1867 3.27351C41.8131 3.16155 41.4211 3.1242 41.033 3.16361L30.7235 4.21743L28.5301 1.2125C28.2666 0.853166 27.9251 0.557809 27.5311 0.348486C27.1371 0.139164 26.7008 0.021281 26.2547 0.00363507L26.2576 0.00201236ZM26.1424 2.95745L29.3424 7.32628L41.339 6.10584L42.0588 13.2669H42.094C56.0763 14.2086 67.0432 25.872 67.0432 39.846V39.8555V39.8651C67.0112 51.8992 58.8769 62.4797 47.22 65.5965L43.857 66.4937L40.6553 62.1299L28.6604 63.3453L27.9405 56.1909H27.9053C13.9231 55.2487 2.96129 43.5789 2.96129 29.6052V29.5956V29.586C2.9933 17.5518 11.1276 6.97137 22.7845 3.85457L26.1424 2.95745Z" fill="white"/>
<path d="M24.019 8.84375L21.1793 9.88388L21.5314 14.5693C20.5123 15.1269 19.5595 15.7795 18.6828 16.5144L14.2905 14.6987L12.364 16.9863L15.0093 20.785C14.4012 21.7848 13.8974 22.8468 13.5066 23.9582L8.86624 24.5191L8.37109 27.4387L12.5544 29.4138C12.5544 29.9985 12.5864 30.5891 12.6376 31.1837C12.6984 31.7779 12.7881 32.3626 12.9065 32.9353L9.19623 35.6682L10.2643 38.4368L14.9268 38.1056C15.532 39.1214 16.2381 40.0689 17.0338 40.934L15.1982 45.1617L17.5411 47.0391L21.4869 44.4251C22.4932 44.9798 23.5594 45.4384 24.6703 45.792L25.2596 50.455L28.2516 50.938L30.3858 46.632C30.9418 46.6224 31.5022 46.5896 32.0656 46.5276L32.0666 46.5297L40.2297 45.7479L39.0665 34.1841L30.9025 34.9649L31.2655 38.5637L31.2642 38.5626C26.1277 39.0544 21.5555 35.3903 21.0511 30.3784C20.547 25.3669 24.3024 20.9062 29.4382 20.4141V20.4131L37.6016 19.6313L36.8002 11.6642L28.6368 12.446C28.0718 12.4919 27.5162 12.565 26.9686 12.6623L24.019 8.84375Z" fill="white"/>
<path d="M41.7527 18.5137L39.6179 22.8196C39.0625 22.8292 38.5024 22.8623 37.9384 22.9239L29.7744 23.7057L30.5756 31.6717L38.7399 30.89C39.9612 30.7729 41.1942 30.8917 42.3685 31.2396C43.5428 31.5875 44.6353 32.1578 45.5837 32.9178C46.5321 33.6777 47.3179 34.6126 47.896 35.6689C48.4742 36.7252 48.8335 37.8823 48.9533 39.0742C49.195 41.4809 48.447 43.8828 46.874 45.7515C45.3009 47.6201 43.0316 48.8024 40.5653 49.0384L32.4016 49.8234L33.203 57.7894L41.3674 57.0076C41.9323 56.9597 42.4882 56.8857 43.0343 56.7899L45.9892 60.6078L48.8263 59.5676L48.4768 54.8823C49.4952 54.3247 50.4478 53.6721 51.3238 52.9371L55.7177 54.7528L57.6426 52.4652L54.9985 48.6666C55.6066 47.6668 56.112 46.6038 56.5035 45.4924L61.1407 44.9325L61.6374 42.0129L57.4528 40.0378C57.4848 39.4532 57.4208 38.8624 57.3696 38.2679C57.3088 37.6736 57.2192 37.0889 57.1007 36.5162L60.8113 33.7833L59.7432 31.0137L55.0824 31.346C54.4768 30.3301 53.7698 29.3826 52.9741 28.5176L54.8093 24.2899L52.4668 22.4124L48.52 25.0264C47.5133 24.4716 46.4482 24.0133 45.3372 23.6596L44.746 18.9966L41.7527 18.5137Z" fill="white"/>
</svg>
