<svg width="100" height="32" viewBox="3 2 101 31" fill="none" xmlns="http://www.w3.org/2000/svg">
<g>
<path d="M15.1124 1.72935C14.9817 1.72469 14.851 1.73958 14.7247 1.77354L13.2331 2.1772C7.48498 3.72368 3.46246 8.9725 3.45508 14.9398C3.45508 14.9412 3.45508 14.9427 3.45508 14.9441V14.9527C3.45508 21.5067 8.29846 27.0415 14.6569 28.0181L14.6725 28.1463L14.8723 30.1528C14.8893 30.3257 14.9402 30.4935 15.022 30.6466C15.1038 30.7997 15.215 30.9351 15.3492 31.0451C15.4833 31.1551 15.6378 31.2374 15.8037 31.2874C15.9696 31.3374 16.1438 31.3541 16.3162 31.3365L20.8959 30.8687L21.8759 32.2079C22.0327 32.4224 22.2504 32.5844 22.5006 32.6727C22.7508 32.761 23.0217 32.7716 23.278 32.7029L24.7694 32.3022C28.5321 31.2907 31.4586 28.6451 33.0979 25.3005C35.0956 26.5333 37.4207 27.3098 39.9766 26.9344C41.1395 26.7634 42.2312 26.3694 43.2784 25.9215L49.4487 26.1941C49.4577 26.1942 49.4667 26.1942 49.4757 26.1941C52.1407 26.2635 54.8828 25.7282 56.7011 24.0306C58.7617 25.6176 61.3157 26.6222 64.1323 26.2721C64.2767 26.254 64.2688 26.2311 64.3821 26.2051L65.5171 27.6504C65.7288 27.9191 66.0364 28.0948 66.375 28.1405C66.7135 28.1861 67.0565 28.098 67.3315 27.8949L70.3267 25.6814C71.1967 26.0295 72.0726 26.4076 73.0961 26.3635C73.5375 26.3443 73.5405 26.2701 73.7455 26.1882C73.8747 26.2233 74.0085 26.2384 74.1423 26.2331L80.9741 25.9377C81.1675 25.9289 81.3565 25.8775 81.5279 25.7871C81.6992 25.6967 81.8485 25.5696 81.9652 25.4147C82.2173 25.4873 82.25 25.5917 82.5826 25.6092C83.6822 25.667 84.6885 25.4026 85.6726 25.1134C87.7244 26.3283 90.0424 26.5433 92.1509 26.1941C92.9205 26.0666 93.6835 25.7572 94.4336 25.4199C95.0837 25.7074 95.7401 26.0053 96.4777 26.0629C97.9942 26.1807 99.4609 25.8525 100.744 25.2254L102.351 24.4402C102.618 24.3099 102.833 24.093 102.962 23.8246C103.09 23.5562 103.125 23.2522 103.059 22.9618L102.168 19.0335C102.383 18.9366 102.568 18.7838 102.703 18.5909C102.839 18.3979 102.921 18.172 102.94 17.9367L103.451 11.7977C103.465 11.6243 103.445 11.4497 103.392 11.2841C103.339 11.1185 103.253 10.965 103.141 10.8325C103.028 10.7001 102.891 10.5912 102.736 10.5122C102.581 10.4333 102.413 10.3857 102.24 10.3723L100.854 10.2633L100.954 9.06629C100.968 8.89291 100.948 8.71839 100.895 8.55278C100.842 8.38716 100.756 8.23371 100.644 8.10125C100.531 7.9688 100.394 7.85994 100.239 7.78094C100.085 7.70195 99.9159 7.65437 99.7429 7.64095L92.964 7.11503C92.617 7.08816 92.2734 7.20016 92.0085 7.42654C91.7436 7.65292 91.5788 7.97525 91.5503 8.32306L91.4508 9.53111L91.384 9.52541C91.1959 9.51119 91.007 9.53763 90.83 9.60296C90.653 9.66828 90.4921 9.77095 90.3581 9.90403C90.0651 9.85742 89.9828 9.76733 89.4952 9.84801C88.7921 9.96447 88.1348 10.2725 87.4765 10.5633C86.3179 9.79615 84.9869 9.19219 83.4254 9.1099C82.3943 9.05573 81.5038 9.35177 80.6258 9.63366C80.498 9.599 80.3657 9.58386 80.2334 9.58876L73.5056 9.87896C73.5004 9.88035 73.4952 9.88178 73.4899 9.88323L73.3975 9.88894L70.1513 10.0224C67.9728 7.87047 64.9214 6.64972 61.6648 7.05439C59.6959 7.29912 58.0108 8.17257 56.5749 9.3018C54.6721 7.8467 52.4145 7.05723 50.4843 7.0043L42.7144 6.65955C42.3769 6.64444 42.0465 6.75995 41.7916 6.98221C41.5367 7.20446 41.3767 7.51645 41.3448 7.85363C40.0484 7.56665 38.7092 7.39728 37.3134 7.60241C34.7015 7.98621 32.6304 9.39965 31.0294 11.1713C29.0701 8.85031 26.5088 7.01154 23.3647 6.47751L23.349 6.33895L23.1463 4.32875C23.1292 4.15594 23.0782 3.9882 22.9964 3.83515C22.9145 3.68211 22.8033 3.54676 22.6692 3.43686C22.5351 3.32696 22.3806 3.24467 22.2147 3.19471C22.0488 3.14475 21.8748 3.1281 21.7024 3.14571L17.1198 3.61642L16.1255 2.26843C16.0077 2.10882 15.8555 1.97791 15.6802 1.88545C15.5049 1.79299 15.3111 1.74136 15.1132 1.7344L15.1124 1.72935ZM15.0683 3.04859L16.5084 5.00063L21.8375 4.45481L22.1572 7.65398H22.1729C25.9356 7.90843 29.0427 10.034 31.0367 12.9686C32.4511 10.8823 34.7182 9.3138 37.5076 8.9038C39.2381 8.64961 40.9585 8.94286 42.5864 9.49678L42.6589 7.97422L50.4509 8.31897C52.3803 8.37186 54.9243 9.14862 56.6271 10.8529C58.0021 9.54201 59.78 8.61263 61.8284 8.35802C64.9615 7.96866 67.965 9.1464 69.8377 11.3538L73.4663 11.2006L73.5658 11.1949L80.2948 10.9054V11.0085C81.2544 10.6234 82.2736 10.3673 83.3577 10.4244C84.8944 10.5053 86.2258 11.125 87.3371 11.9912C88.0864 11.5759 88.9038 11.2818 89.7142 11.1477C90.2356 11.0614 90.734 11.2746 91.2555 11.2789L91.2853 10.8391L92.6574 10.9445L92.8661 8.42818L99.6447 8.95416L99.436 11.4734L102.141 11.6855L101.63 17.8245L100.527 17.7376L101.777 23.2505L100.17 24.0357C99.0801 24.5682 97.8447 24.8409 96.5819 24.7428C95.8569 24.6863 95.1084 24.423 94.4188 24.0519C93.6469 24.4802 92.7948 24.7454 91.9383 24.8872C90.0611 25.1982 88.0714 25.0037 86.3343 23.9716L85.9679 23.7543C84.9364 24.1407 83.8217 24.3478 82.6525 24.2862C81.9968 24.2515 81.4837 23.8698 80.8781 23.6821L80.9194 24.6147L74.0876 24.9101L74.072 24.7318C73.7181 24.8091 73.396 25.0251 73.039 25.0405C71.9613 25.0869 70.9354 24.7699 70.0033 24.2781L66.5521 26.8282L64.8831 24.7068C64.5708 24.7776 64.2954 24.9168 63.9697 24.9572C61.0891 25.3152 58.3955 24.2561 56.5134 22.385C55.2483 24.2553 52.3976 24.9463 49.5092 24.871L43.1419 24.5896C42.0686 25.0794 40.9394 25.456 39.787 25.6253C37.0328 26.03 34.4544 25.1382 32.5277 23.509C31.2404 27.1155 28.2723 29.9905 24.4301 31.0233L22.9394 31.4248L21.5147 29.4757L16.1856 30.0186L15.8658 26.8224H15.8502C9.63907 26.4015 4.7703 21.1893 4.7703 14.9482V14.9396C4.78453 9.56464 8.39745 4.84182 13.576 3.4499L15.0683 3.04859Z" fill="white"/>
<path d="M14.1259 5.67773L12.8645 6.14229L13.0209 8.235C12.5682 8.48403 12.1449 8.77551 11.7555 9.10375L9.80432 8.29278L8.94852 9.31455L10.1237 11.0112C9.85351 11.4577 9.62972 11.9321 9.4561 12.4285L7.39476 12.679L7.1748 13.983L9.03312 14.8652C9.03312 15.1263 9.04734 15.3901 9.07008 15.6557C9.0971 15.9211 9.13691 16.1822 9.18951 16.438L7.54136 17.6586L8.01581 18.8952L10.0869 18.7473C10.3558 19.201 10.6695 19.6242 11.0229 20.0105L10.2075 21.8988L11.2483 22.7373L13.0011 21.5698C13.4481 21.8175 13.9217 22.0223 14.4152 22.1803L14.677 24.263L16.0061 24.4787L16.9542 22.5555C17.2012 22.5512 17.4501 22.5365 17.7003 22.5088L17.7006 22.5098L21.3269 22.1606L20.8102 16.9958L17.1837 17.3445L17.3449 18.9519L17.3443 18.9514C15.0626 19.1711 13.0315 17.5345 12.8074 15.2961C12.5835 13.0577 14.2517 11.0655 16.5332 10.8456V10.8451L20.1595 10.4959L19.8034 6.93737L16.1772 7.28654C15.9262 7.30706 15.6794 7.33971 15.4361 7.38318L14.1259 5.67773ZM22.003 9.99707L21.0546 11.9203C20.8079 11.9245 20.5591 11.9394 20.3086 11.9669L16.682 12.316L17.0379 15.874L20.6647 15.5248C21.2073 15.4725 21.755 15.5256 22.2766 15.681C22.7982 15.8364 23.2835 16.0911 23.7048 16.4306C24.1261 16.77 24.4751 17.1875 24.7319 17.6593C24.9888 18.1311 25.1484 18.6479 25.2016 19.1802C25.309 20.2551 24.9767 21.3279 24.278 22.1625C23.5792 22.9971 22.5711 23.5252 21.4756 23.6306L17.849 23.9812L18.205 27.5392L21.8319 27.19C22.0828 27.1686 22.3298 27.1355 22.5723 27.0928L23.885 28.798L25.1452 28.3334L24.99 26.2407C25.4424 25.9917 25.8655 25.7002 26.2547 25.372L28.2066 26.183L29.0616 25.1612L27.8871 23.4646C28.1572 23.018 28.3817 22.5433 28.5556 22.0468L30.6156 21.7968L30.8362 20.4927L28.9773 19.6106C28.9915 19.3495 28.9631 19.0856 28.9404 18.8201C28.9134 18.5547 28.8736 18.2935 28.8209 18.0377L30.4693 16.8171L29.9948 15.5801L27.9244 15.7285C27.6554 15.2748 27.3413 14.8516 26.9878 14.4652L27.8031 12.577L26.7624 11.7384L25.0092 12.9059C24.5621 12.6581 24.0889 12.4534 23.5954 12.2954L23.3328 10.2128L22.003 9.99707Z" fill="white"/>
<path d="M40.7775 19.437C40.2187 19.7625 39.6466 20.0031 39.226 20.0649C37.6309 20.2993 36.2706 19.282 36.0131 17.6333C35.7608 16.0185 36.7317 14.6588 38.3093 14.427C39.3259 14.2776 40.5948 14.5954 41.5381 15.2393L43.412 12.1994C41.9221 11.2707 39.7246 10.8633 37.8142 11.144C33.8002 11.7338 31.2916 14.728 31.8414 18.2463C32.3938 21.7817 35.602 23.9531 39.4583 23.3868C41.2111 23.1293 43.3713 22.1512 44.6005 21.0664L43.8329 16.1541L40.3449 16.6666L40.7775 19.437Z" fill="white"/>
<path d="M50.3335 10.5785L44.7903 10.334L44.2256 22.3725L49.6093 22.61C53.8066 22.7951 56.6274 20.5447 56.7989 16.8866C56.9705 13.2286 54.4246 10.7591 50.3335 10.5785ZM50.0201 19.5306L48.4793 19.4627L48.754 13.6064L50.1 13.6657C51.6939 13.7361 52.6839 14.9499 52.6002 16.7358C52.5172 18.5047 51.5078 19.5963 50.0201 19.5306Z" fill="white"/>
<path d="M62.0876 10.6006C58.3772 11.0617 55.8715 14.0082 56.3268 17.4525C56.7797 20.8799 59.9772 23.1685 63.6877 22.7076C64.4257 22.6159 65.1135 22.4203 65.742 22.1444L66.9666 23.7031L68.8034 22.3465L67.6515 20.8806C68.9957 19.596 69.7035 17.7809 69.4447 15.8223C68.9918 12.3949 65.7977 10.1394 62.0876 10.6006ZM62.3934 12.6425C64.6442 12.3628 66.7381 13.871 67.0354 16.1217C67.1812 17.2249 66.8625 18.2675 66.2363 19.0783L65.3004 17.8871L63.463 19.2444L64.3911 20.4253C64.0934 20.5348 63.7807 20.6161 63.4526 20.6568C61.1842 20.9388 59.0333 19.404 58.7359 17.1531C58.4384 14.9022 60.1074 12.9264 62.3934 12.6425Z" fill="white"/>
<path d="M75.8057 13.3621L76.0134 17.8961C76.081 19.3731 75.2475 20.5447 73.7606 20.626C72.4854 20.6808 71.6884 19.9408 71.6294 18.6528L71.3958 13.5519L69.0757 13.6519L69.3392 19.4052C69.4384 21.5691 70.8111 22.8696 72.9363 22.7778C74.4417 22.713 75.5492 22.0974 76.1486 20.8498L76.2264 22.5501L78.5465 22.4501L78.1257 13.2617L75.8057 13.3621Z" fill="white"/>
<path d="M83.2258 12.6825C80.3935 12.5333 78.3051 14.3172 78.1483 17.1152C77.9935 19.8789 79.8173 21.8688 82.7558 22.0237C84.4197 22.1113 85.8331 21.6004 86.8273 20.6542L85.6584 19.3358C84.9482 19.9698 84.0252 20.2828 83.0516 20.2315C81.6708 20.1588 80.6883 19.3151 80.4604 17.9946L87.4528 18.3629C87.8695 15.0447 86.5537 12.8578 83.2258 12.6825ZM80.491 16.4983C80.7794 15.1534 81.7834 14.3454 83.1464 14.4172C84.5803 14.4927 85.4704 15.4004 85.4476 16.7593L80.491 16.4983Z" fill="white"/>
<path d="M93.1235 15.5081L93.6642 13.7792C92.6306 13.3225 91.2922 13.178 90.069 13.3806C88.1817 13.6932 86.6913 14.8295 87.0197 16.6934C87.5692 19.916 92.2838 18.1934 92.5791 19.871C92.6835 20.4641 92.1342 20.8167 91.3478 20.947C90.3342 21.1148 88.9695 20.9223 87.9879 20.3524L87.4731 22.0247C88.598 22.693 90.1435 22.8904 91.5591 22.656C93.5513 22.3261 95.0882 21.1472 94.7629 19.3C94.1898 16.0463 89.3847 17.662 89.116 16.1369C89.0175 15.5777 89.5 15.2536 90.234 15.1321C91.0378 14.9989 92.1225 15.1332 93.1238 15.508L93.1235 15.5081Z" fill="white"/>
<path d="M98.775 20.2823C98.2426 20.4822 97.7895 20.5848 97.4007 20.5545C96.7822 20.5062 96.4353 20.186 96.5078 19.3121L96.8505 15.1822L99.5542 15.3931L99.6892 13.7652L96.9856 13.5543L97.1946 11.0353L94.915 10.8574L94.706 13.3764L93.363 13.2717L93.2456 14.9009L94.5709 15.0044L94.1956 19.5283C94.0392 21.4132 95.2051 22.3665 96.7425 22.4865C97.573 22.5513 98.4058 22.3748 99.1658 22.0029L98.775 20.2823Z" fill="white"/>
</g>
</svg>
