<svg width="485" height="169" viewBox="0 0 485 169" fill="none" xmlns="http://www.w3.org/2000/svg">
<g opacity="0.24">
<path d="M447.588 -5.76629L544.828 1.88149M447.588 -5.76629L471.053 61.0625M447.588 -5.76629L400.603 108.313M447.588 -5.76629L317.402 47.7682M544.828 1.88149L514.595 106.401M544.828 1.88149L471.053 61.0625M514.595 106.401L471.053 61.0625M514.595 106.401L400.603 108.313M471.053 61.0625L400.603 108.313M471.053 61.0625L330.085 -11.5021M400.603 108.313L317.402 47.7682M400.603 108.313L330.085 -11.5021M400.603 108.313L273.368 124.246M317.402 47.7682L330.085 -11.5021M317.402 47.7682L235.078 -22.9738M317.402 47.7682L273.368 124.246M317.402 47.7682L194.794 67.8436M330.085 -11.5021L194.794 67.8436M235.078 -22.9738L273.368 124.246M235.078 -22.9738L136.402 -20.7432M235.078 -22.9738L176.386 10.5904M235.078 -22.9738L194.794 67.8436M194.794 67.8436L158.336 162.008M194.794 67.8436L124.037 45.2189M194.794 67.8436L273.368 124.246M194.794 67.8436L176.386 10.5904M194.794 67.8436L136.402 -20.7432M158.336 162.008L59.5029 64.657M158.336 162.008L17.9965 91.7066M158.336 162.008L124.037 45.2189M59.5029 64.657L136.402 -20.7432M59.5029 64.657L3.98242 2.20014M59.5029 64.657L17.9965 91.7066M17.9965 91.7066L53.201 -19.7872L124.037 45.2189M17.9965 91.7066L3.98242 2.20014M124.037 45.2189L136.402 -20.7432M124.037 45.2189L176.386 10.5904M124.037 45.2189L3.98242 2.20014M176.386 10.5904L136.402 -20.7432" stroke="white" stroke-opacity="0.6" stroke-width="0.315681"/>
<path d="M128.827 45.2189C128.827 42.5932 126.667 40.4359 124.038 40.4359C121.412 40.4359 119.249 42.5932 119.249 45.2189C119.249 47.8415 121.412 50.002 124.038 50.002C126.667 50.002 128.827 47.8415 128.827 45.2189Z" stroke="white" stroke-opacity="0.5" stroke-width="0.947044" stroke-linecap="round" stroke-linejoin="round"/>
<path d="M127.39 45.2185C127.39 43.3831 125.877 41.8726 124.039 41.8726C122.201 41.8726 120.689 43.3831 120.689 45.2185C120.689 47.054 122.201 48.5645 124.039 48.5645C125.877 48.5645 127.39 47.054 127.39 45.2185Z" fill="white" fill-opacity="0.5"/>
<path d="M278.16 124.244C278.16 121.62 276 119.461 273.371 119.461C270.742 119.461 268.582 121.62 268.582 124.244C268.582 126.868 270.742 129.027 273.371 129.027C276 129.027 278.16 126.868 278.16 124.244Z" stroke="white" stroke-width="0.947044" stroke-linecap="round" stroke-linejoin="round"/>
<path d="M276.72 124.245C276.72 122.409 275.207 120.899 273.369 120.899C271.531 120.899 270.019 122.409 270.019 124.245C270.019 126.081 271.531 127.592 273.369 127.592C275.207 127.592 276.72 126.081 276.72 124.245Z" fill="white"/>
<path d="M322.192 47.7677C322.192 45.142 320.031 42.9847 317.402 42.9847C314.773 42.9847 312.613 45.142 312.613 47.7677C312.613 50.3903 314.773 52.5508 317.402 52.5508C320.031 52.5508 322.192 50.3903 322.192 47.7677Z" stroke="white" stroke-width="0.947044" stroke-linecap="round" stroke-linejoin="round"/>
<path d="M320.754 47.7674C320.754 45.9319 319.242 44.4215 317.404 44.4215C315.566 44.4215 314.053 45.9319 314.053 47.7674C314.053 49.6028 315.566 51.1133 317.404 51.1133C319.242 51.1133 320.754 49.6028 320.754 47.7674Z" fill="white"/>
<path d="M62.5371 64.6571C62.5371 62.9937 61.1683 61.6266 59.5027 61.6266C57.8371 61.6266 56.4683 62.9937 56.4683 64.6571C56.4683 66.3195 57.8371 67.6875 59.5027 67.6875C61.1683 67.6875 62.5371 66.3195 62.5371 64.6571Z" stroke="white" stroke-opacity="0.5" stroke-width="1.89728" stroke-linecap="round" stroke-linejoin="round"/>
<path d="M61.0122 64.6568C61.0122 63.8283 60.3325 63.1496 59.5029 63.1496C58.6733 63.1496 57.9937 63.8283 57.9937 64.6568C57.9937 65.4837 58.6733 66.1641 59.5029 66.1641C60.3325 66.1641 61.0122 65.4837 61.0122 64.6568Z" fill="white" fill-opacity="0.5"/>
<path d="M7.01754 2.20003C7.01754 0.536641 5.64875 -0.830403 3.98314 -0.830403C2.31752 -0.830403 0.94873 0.536641 0.94873 2.20003C0.94873 3.86342 2.31752 5.23047 3.98314 5.23047C5.64875 5.23047 7.01754 3.86342 7.01754 2.20003Z" stroke="white" stroke-width="1.89728" stroke-linecap="round" stroke-linejoin="round"/>
<path d="M5.49312 2.19979C5.49312 1.37128 4.81348 0.692544 3.98387 0.692544C3.15425 0.692544 2.47461 1.37128 2.47461 2.19979C2.47461 3.0283 3.15425 3.70703 3.98387 3.70703C4.81348 3.70703 5.49312 3.0283 5.49312 2.19979Z" fill="white"/>
<path d="M197.829 67.8426C197.829 66.1802 196.46 64.8119 194.795 64.8119C193.129 64.8119 191.76 66.1802 191.76 67.8426C191.76 69.505 193.129 70.873 194.795 70.873C196.46 70.873 197.829 69.505 197.829 67.8426Z" stroke="white" stroke-width="1.89728" stroke-linecap="round" stroke-linejoin="round"/>
<path d="M196.304 67.8424C196.304 67.0154 195.621 66.3351 194.795 66.3351C193.965 66.3351 193.286 67.0154 193.286 67.8424C193.286 68.6693 193.965 69.3496 194.795 69.3496C195.621 69.3496 196.304 68.6693 196.304 67.8424Z" fill="white"/>
<path d="M403.639 108.311C403.639 106.649 402.27 105.281 400.604 105.281C398.939 105.281 397.57 106.649 397.57 108.311C397.57 109.974 398.939 111.342 400.604 111.342C402.27 111.342 403.639 109.974 403.639 108.311Z" stroke="white" stroke-opacity="0.5" stroke-width="1.89728" stroke-linecap="round" stroke-linejoin="round"/>
<path d="M402.114 108.313C402.114 107.486 401.431 106.806 400.604 106.806C399.775 106.806 399.095 107.486 399.095 108.313C399.095 109.14 399.775 109.82 400.604 109.82C401.431 109.82 402.114 109.14 402.114 108.313Z" fill="white" fill-opacity="0.5"/>
<path d="M183.124 10.5896C183.124 6.8995 180.083 3.8627 176.388 3.8627C172.693 3.8627 169.652 6.8995 169.652 10.5896C169.652 14.2796 172.693 17.3164 176.388 17.3164C180.083 17.3164 183.124 14.2796 183.124 10.5896Z" fill="white" fill-opacity="0.38"/>
<path d="M165.072 162.008C165.072 158.318 162.031 155.282 158.336 155.282C154.641 155.282 151.6 158.318 151.6 162.008C151.6 165.698 154.641 168.734 158.336 168.734C162.031 168.734 165.072 165.698 165.072 162.008Z" fill="white" fill-opacity="0.38"/>
<path d="M24.7338 91.7054C24.7338 88.0154 21.693 84.9789 17.998 84.9789C14.303 84.9789 11.2622 88.0154 11.2622 91.7054C11.2622 95.3955 14.303 98.4316 17.998 98.4316C21.693 98.4316 24.7338 95.3955 24.7338 91.7054Z" fill="white"/>
</g>
</svg>
