<svg width="440" height="132" viewBox="0 0 440 132" fill="none" xmlns="http://www.w3.org/2000/svg">
<g opacity="0.24">
<path d="M81.2179 139.576L3.37809 133.459M81.2179 139.576L62.4341 86.1217M81.2179 139.576L118.829 48.3276M81.2179 139.576L185.43 96.7554M3.37809 133.459L27.5793 49.8569M3.37809 133.459L62.4341 86.1217M27.5793 49.8569L62.4341 86.1217M27.5793 49.8569L118.829 48.3276M62.4341 86.1217L118.829 48.3276M62.4341 86.1217L175.277 144.164M118.829 48.3276L185.43 96.7554M118.829 48.3276L175.277 144.164M118.829 48.3276L220.678 35.5834M185.43 96.7554L175.277 144.164M185.43 96.7554L251.329 153.34M185.43 96.7554L220.678 35.5834M185.43 96.7554L283.576 80.6978M175.277 144.164L283.576 80.6978M251.329 153.34L220.678 35.5834M251.329 153.34L330.318 151.555M251.329 153.34L298.311 126.493M251.329 153.34L283.576 80.6978M283.576 80.6978L312.76 5.37891M283.576 80.6978L340.215 98.7945M283.576 80.6978L220.678 35.5834M283.576 80.6978L298.311 126.493M283.576 80.6978L330.318 151.555M312.76 5.37891L391.874 83.2466M312.76 5.37891L425.1 61.6106M312.76 5.37891L340.215 98.7945M391.874 83.2466L330.318 151.555M391.874 83.2466L436.318 133.204M391.874 83.2466L425.1 61.6106M425.1 61.6106L396.919 150.791L340.215 98.7945M425.1 61.6106L436.318 133.204M340.215 98.7945L330.318 151.555M340.215 98.7945L298.311 126.493M340.215 98.7945L436.318 133.204M298.311 126.493L330.318 151.555" stroke="white" stroke-opacity="0.6" stroke-width="0.316389"/>
<path d="M336.381 98.7946C336.381 100.895 338.11 102.62 340.215 102.62C342.317 102.62 344.048 100.895 344.048 98.7946C344.048 96.6969 342.317 94.9688 340.215 94.9688C338.11 94.9688 336.381 96.6969 336.381 98.7946Z" stroke="white" stroke-opacity="0.5" stroke-width="0.949167" stroke-linecap="round" stroke-linejoin="round"/>
<path d="M337.533 98.7954C337.533 100.264 338.744 101.472 340.215 101.472C341.686 101.472 342.897 100.264 342.897 98.7954C342.897 97.3273 341.686 96.1191 340.215 96.1191C338.744 96.1191 337.533 97.3273 337.533 98.7954Z" fill="white" fill-opacity="0.5"/>
<path d="M216.842 35.5836C216.842 37.6826 218.572 39.4097 220.676 39.4097C222.781 39.4094 224.51 37.6826 224.51 35.5836C224.51 33.4849 222.781 31.7578 220.676 31.7578C218.572 31.7578 216.842 33.4849 216.842 35.5836Z" stroke="white" stroke-width="0.949167" stroke-linecap="round" stroke-linejoin="round"/>
<path d="M217.995 35.585C217.995 37.0534 219.206 38.2618 220.677 38.2618C222.148 38.2618 223.359 37.0534 223.359 35.585C223.359 34.1166 222.148 32.9082 220.677 32.9082C219.206 32.9082 217.995 34.1166 217.995 35.585Z" fill="white"/>
<path d="M23.7439 49.8571C23.7439 51.956 25.4731 53.6831 27.5777 53.6831C29.6824 53.6829 31.4116 51.956 31.4116 49.8571C31.4116 47.7583 29.6824 46.0312 27.5777 46.0312C25.4731 46.0312 23.7439 47.7583 23.7439 49.8571Z" stroke="white" stroke-width="0.949167" stroke-linecap="round" stroke-linejoin="round"/>
<path d="M24.8974 49.8584C24.8974 51.3268 26.1081 52.5352 27.5793 52.5352C29.0505 52.5352 30.2612 51.3268 30.2612 49.8584C30.2612 48.39 29.0505 47.1816 27.5793 47.1816C26.1081 47.1816 24.8974 48.39 24.8974 49.8584Z" fill="white"/>
<path d="M181.594 96.7555C181.594 98.8557 183.324 100.581 185.428 100.581C187.533 100.581 189.262 98.8557 189.262 96.7555C189.262 94.6578 187.533 92.9297 185.428 92.9297C183.324 92.9297 181.594 94.6578 181.594 96.7555Z" stroke="white" stroke-width="0.949167" stroke-linecap="round" stroke-linejoin="round"/>
<path d="M182.747 96.7564C182.747 98.2245 183.958 99.4326 185.429 99.4326C186.9 99.4326 188.111 98.2245 188.111 96.7564C188.111 95.2882 186.9 94.0801 185.429 94.0801C183.958 94.0801 182.747 95.2882 182.747 96.7564Z" fill="white"/>
<path d="M389.446 83.2482C389.446 84.5787 390.542 85.6721 391.875 85.6721C393.208 85.6721 394.304 84.5787 394.304 83.2482C394.304 81.9184 393.208 80.8242 391.875 80.8242C390.542 80.8242 389.446 81.9184 389.446 83.2482Z" stroke="white" stroke-opacity="0.5" stroke-width="1.89578" stroke-linecap="round" stroke-linejoin="round"/>
<path d="M390.666 83.2466C390.666 83.9093 391.21 84.4522 391.874 84.4522C392.538 84.4522 393.083 83.9093 393.083 83.2466C393.083 82.5852 392.538 82.041 391.874 82.041C391.21 82.041 390.666 82.5852 390.666 83.2466Z" fill="white" fill-opacity="0.5"/>
<path d="M433.889 133.205C433.889 134.536 434.984 135.629 436.318 135.629C437.651 135.629 438.747 134.536 438.747 133.205C438.747 131.875 437.651 130.781 436.318 130.781C434.984 130.781 433.889 131.875 433.889 133.205Z" stroke="white" stroke-width="1.89578" stroke-linecap="round" stroke-linejoin="round"/>
<path d="M281.145 80.6993C281.145 82.0291 282.241 83.1235 283.574 83.1235C284.908 83.1235 286.003 82.0291 286.003 80.6993C286.003 79.3696 284.908 78.2754 283.574 78.2754C282.241 78.2754 281.145 79.3696 281.145 80.6993Z" stroke="white" stroke-width="1.89578" stroke-linecap="round" stroke-linejoin="round"/>
<path d="M282.366 80.6978C282.366 81.3592 282.913 81.9034 283.575 81.9034C284.239 81.9034 284.783 81.3592 284.783 80.6978C284.783 80.0364 284.239 79.4922 283.575 79.4922C282.913 79.4922 282.366 80.0364 282.366 80.6978Z" fill="white"/>
<path d="M116.399 48.3282C116.399 49.658 117.495 50.7524 118.828 50.7524C120.162 50.7524 121.257 49.658 121.257 48.3282C121.257 46.9985 120.162 45.9043 118.828 45.9043C117.495 45.9043 116.399 46.9985 116.399 48.3282Z" stroke="white" stroke-opacity="0.5" stroke-width="1.89578" stroke-linecap="round" stroke-linejoin="round"/>
<path d="M117.62 48.3286C117.62 48.9901 118.167 49.5342 118.828 49.5342C119.493 49.5342 120.037 48.9901 120.037 48.3286C120.037 47.6672 119.493 47.123 118.828 47.123C118.167 47.123 117.62 47.6672 117.62 48.3286Z" fill="white" fill-opacity="0.5"/>
<path d="M0.948027 133.459C0.948027 134.79 2.04379 135.883 3.37709 135.883C4.71039 135.883 5.80615 134.79 5.80615 133.459C5.80615 132.129 4.71039 131.035 3.37709 131.035C2.04379 131.035 0.948027 132.129 0.948027 133.459Z" stroke="white" stroke-opacity="0.52" stroke-width="1.89578" stroke-linecap="round" stroke-linejoin="round"/>
<path d="M292.917 126.494C292.917 129.445 295.351 131.874 298.309 131.874C301.266 131.874 303.701 129.445 303.701 126.494C303.701 123.542 301.266 121.113 298.309 121.113C295.351 121.113 292.917 123.542 292.917 126.494Z" fill="white" fill-opacity="0.38"/>
<path d="M57.0398 86.1223C57.0398 89.0738 59.474 91.5029 62.4318 91.5029C65.3895 91.5029 67.8237 89.0738 67.8237 86.1223C67.8237 83.171 65.3895 80.7422 62.4318 80.7422C59.474 80.7422 57.0398 83.171 57.0398 86.1223Z" fill="white" fill-opacity="0.58"/>
<path d="M307.367 5.38034C307.367 8.33189 309.801 10.7604 312.759 10.7604C315.717 10.7604 318.151 8.33189 318.151 5.38034C318.151 2.42879 315.717 0 312.759 0C309.801 0 307.367 2.42879 307.367 5.38034Z" fill="white" fill-opacity="0.38"/>
<path d="M419.706 61.6106C419.706 64.5621 422.14 66.9909 425.098 66.9909C428.056 66.9909 430.49 64.5621 430.49 61.6106C430.49 58.659 428.056 56.2305 425.098 56.2305C422.14 56.2305 419.706 58.659 419.706 61.6106Z" fill="white"/>
</g>
</svg>
